<svg version="1.0" xmlns="http://www.w3.org/2000/svg" width="1080" height="423" preserveAspectRatio="xMidYMid meet" style=""><rect id="backgroundrect" width="100%" height="100%" x="0" y="0" fill="none" stroke="none"/>


<g class="currentLayer" style=""><title>Layer 1</title><g transform="translate(0, 423) scale(0.1, -0.1)" fill="#000000" stroke="none" id="svg_1" class="selected">
<path d="M4970.021240234375,4252.914978027344 c-118,-9 -118,-9 -116,-179 c3,-281 93,-461 285,-570 c120,-69 322,-112 522,-112 l106,0 l0,-124 l0,-123 l-97,-7 c-388,-28 -684,-117 -829,-248 c-92,-85 -94,-93 -94,-392 l0,-259 l-42,7 c-317,52 -674,20 -886,-79 c-95,-45 -137,-78 -170,-134 l-27,-46 l0,-555 l0,-555 l34,-69 c28,-58 42,-73 94,-107 c114,-74 322,-123 570,-135 c108,-6 234,2 378,22 l46,6 l6,-76 c7,-95 49,-192 108,-248 c53,-51 180,-110 314,-148 c487,-136 1158,-105 1524,71 c99,48 157,103 191,180 l25,56 l141,6 c346,15 614,91 712,202 c75,85 72,41 72,1027 c0,854 -1,880 -20,917 c-76,149 -374,250 -790,268 l-155,6 l-49,44 c-135,121 -450,212 -818,239 l-98,7 l0,123 l0,124 l106,0 c132,0 295,23 394,56 c203,68 336,204 385,395 c38,145 41,353 5,389 c-37,37 -392,33 -541,-5 c-187,-48 -327,-172 -390,-346 c-12,-32 -25,-59 -28,-59 c-4,0 -13,17 -20,38 c-26,75 -86,168 -145,228 c-100,100 -224,147 -430,164 c-117,10 -141,10 -273,1 zm394,-156 c34,-8 84,-25 110,-37 c68,-31 152,-120 191,-200 c32,-66 85,-250 80,-276 c-4,-20 -133,74 -200,146 c-31,34 -71,82 -89,107 c-18,25 -44,48 -58,52 c-32,8 -73,-15 -85,-50 c-8,-23 -4,-35 30,-84 c21,-31 74,-93 117,-137 c42,-44 77,-81 77,-82 c0,-4 -69,6 -146,22 c-147,30 -288,124 -339,225 c-31,61 -52,146 -61,246 c-6,80 -6,81 17,87 c44,9 293,-4 356,-19 zm1292,19 l32,-7 l-6,-76 c-9,-104 -30,-192 -59,-249 c-52,-102 -192,-195 -340,-226 c-92,-19 -146,-26 -146,-19 c0,3 20,23 45,45 c48,42 167,190 178,221 c10,26 -9,66 -37,78 c-40,18 -71,3 -112,-53 c-20,-29 -60,-77 -88,-107 c-64,-67 -190,-158 -194,-139 c-5,26 48,214 78,275 c60,121 154,199 280,233 c91,24 299,38 369,24 zm-889,-1277 c0,-152 2,-165 20,-182 c29,-26 79,-24 102,4 c16,20 18,43 18,182 l0,159 l34,0 c61,0 239,-20 352,-40 c278,-49 494,-162 494,-258 c0,-99 -219,-209 -525,-263 c-116,-21 -161,-24 -425,-24 c-266,0 -308,2 -425,24 c-229,41 -398,106 -480,185 c-37,35 -45,49 -45,79 c0,100 225,214 515,261 c115,19 237,33 313,35 l52,1 l0,-163 zm1540,-157 c119,-22 226,-52 282,-81 c56,-29 108,-78 108,-103 c0,-69 -208,-162 -440,-195 c-41,-6 -131,-12 -200,-14 l-125,-2 l-3,214 l-2,214 l137,-7 c75,-4 185,-16 243,-26 zm-2335,-251 c125,-65 281,-108 510,-141 c56,-8 190,-13 355,-13 c165,0 299,5 355,13 c229,33 385,76 510,141 c39,20 73,37 78,39 c4,2 7,-39 7,-91 l0,-95 l-41,-35 c-150,-129 -503,-211 -909,-211 c-414,0 -764,82 -915,216 l-35,30 l0,95 c0,52 3,93 8,91 c4,-2 39,-19 77,-39 zm2725,-194 c0,-67 -15,-84 -116,-131 c-133,-62 -349,-104 -541,-104 l-113,0 l0,70 c0,49 4,70 13,70 c83,2 329,23 400,35 c109,19 234,56 297,89 c25,13 48,24 53,25 c4,0 7,-24 7,-54 zm-3020,-127 l65,-13 l0,-155 l0,-155 l-70,-12 c-342,-59 -803,12 -899,140 c-20,27 -20,27 0,55 c41,57 197,117 388,148 c98,16 419,11 516,-8 zm497,-128 c311,-86 658,-108 1013,-64 c202,25 447,95 558,160 l42,25 l0,-94 l0,-95 l-42,-37 c-76,-70 -279,-145 -478,-179 c-512,-86 -1139,-2 -1340,181 l-40,35 l0,93 l0,92 l85,-42 c46,-23 137,-57 202,-75 zm2521,-37 c-3,-57 -4,-59 -51,-90 c-115,-77 -324,-127 -585,-140 l-133,-6 l3,74 l3,74 l145,7 c223,10 420,49 545,108 c33,16 64,29 68,29 c4,1 7,-25 5,-56 zm-3862,-238 c230,-92 548,-117 872,-69 l42,6 l0,-56 c0,-50 -3,-58 -23,-65 c-98,-38 -495,-39 -662,-3 c-111,24 -235,74 -275,112 c-23,21 -30,37 -30,64 c0,20 3,36 7,36 c3,0 35,-11 69,-25 zm1286,-80 c213,-71 418,-99 723,-99 c116,1 255,6 310,13 c229,27 437,84 573,156 l62,33 l0,-93 l0,-93 l-42,-37 c-88,-80 -283,-150 -516,-185 c-510,-77 -1105,9 -1302,186 l-40,36 l0,93 l0,93 l63,-34 c35,-18 111,-49 169,-69 zm2578,31 l0,-54 l-54,-36 c-114,-76 -318,-124 -563,-133 l-153,-6 l0,70 l0,70 l132,7 c232,11 422,49 566,111 c31,13 60,24 65,25 c4,0 7,-24 7,-54 zm-3868,-211 c178,-81 531,-116 803,-80 c61,8 111,15 113,15 c1,0 2,-27 2,-59 c0,-67 11,-60 -125,-82 c-108,-17 -373,-14 -489,5 c-130,22 -279,72 -330,111 c-35,26 -41,37 -44,73 c-2,23 1,42 6,42 c5,0 34,-11 64,-25 zm3852,-136 c-77,-85 -326,-152 -622,-166 l-133,-6 l3,74 l3,74 l145,6 c218,10 421,50 561,112 l54,24 l3,-50 c2,-36 -2,-54 -14,-68 zm-2587,-50 c87,-30 243,-66 378,-85 c169,-25 562,-25 730,0 c223,33 368,73 497,137 c43,22 80,39 83,39 c3,0 5,-40 5,-89 l0,-88 l-44,-41 c-55,-51 -115,-81 -236,-120 c-219,-70 -444,-97 -743,-89 c-283,7 -474,40 -680,117 c-66,25 -173,93 -187,120 c-6,10 -10,59 -10,108 l0,89 l75,-39 c41,-21 100,-48 132,-59 zm-1273,-74 c146,-65 339,-96 581,-96 c94,1 207,7 253,14 c45,8 84,11 87,9 c3,-3 5,-29 5,-58 l0,-52 l-48,-11 c-314,-67 -782,-7 -914,117 c-21,19 -28,35 -28,64 c0,21 2,38 4,38 c2,0 29,-11 60,-25 zm3876,-100 c0,-53 -1,-55 -44,-85 c-111,-76 -306,-126 -545,-139 c-80,-4 -153,-7 -161,-6 c-11,1 -16,19 -18,72 l-3,70 l133,7 c228,11 444,53 568,109 c30,14 58,26 63,26 c4,1 7,-24 7,-54 zm-2744,-137 c72,-38 235,-93 348,-117 c222,-48 559,-65 812,-40 c221,21 475,87 608,157 c28,15 54,28 59,30 c4,2 7,-38 7,-88 l0,-93 l-36,-33 c-77,-73 -268,-145 -499,-187 c-106,-19 -155,-22 -415,-22 c-260,0 -309,3 -415,22 c-230,42 -421,113 -497,185 l-38,35 l0,93 c0,50 3,90 8,88 c4,-2 30,-15 58,-30 zm-1149,-18 c60,-29 204,-69 308,-85 c188,-30 338,-29 583,1 l53,7 l-3,-59 l-3,-59 l-65,-13 c-101,-21 -462,-21 -576,1 c-164,30 -292,85 -318,135 c-14,28 -31,92 -24,92 c2,0 23,-9 45,-20 zm3889,-146 c-4,-13 -20,-39 -37,-58 c-70,-81 -373,-155 -632,-156 l-98,0 l3,73 l3,72 l150,6 c225,10 454,57 573,118 l37,19 l3,-25 c2,-14 1,-36 -2,-49 zm-2731,-210 c203,-106 513,-164 875,-164 c362,0 672,58 875,164 c33,17 63,32 68,34 c4,2 7,-25 7,-60 c0,-74 -32,-152 -75,-186 c-112,-88 -397,-161 -712,-182 c-370,-25 -792,40 -991,152 c-57,32 -93,73 -111,127 c-12,38 -15,155 -3,149 c4,-2 34,-17 67,-34 z" id="svg_2"/>
</g></g></svg>