<?xml version="1.0" standalone="no"?>
<!DOCTYPE svg PUBLIC "-//W3C//DTD SVG 20010904//EN"
 "http://www.w3.org/TR/2001/REC-SVG-20010904/DTD/svg10.dtd">
<svg version="1.0" xmlns="http://www.w3.org/2000/svg"
 width="1080.000000pt" height="423.000000pt" viewBox="0 0 1080.000000 423.000000"
 preserveAspectRatio="xMidYMid meet">

<g transform="translate(0.000000,423.000000) scale(0.100000,-0.100000)"
fill="#000000" stroke="none">
<path d="M1353 4221 c-118 -9 -118 -9 -116 -179 3 -281 93 -461 285 -570 120
-69 322 -112 522 -112 l106 0 0 -124 0 -123 -97 -7 c-388 -28 -684 -117 -829
-248 -92 -85 -94 -93 -94 -392 l0 -259 -42 7 c-317 52 -674 20 -886 -79 -95
-45 -137 -78 -170 -134 l-27 -46 0 -555 0 -555 34 -69 c28 -58 42 -73 94 -107
114 -74 322 -123 570 -135 108 -6 234 2 378 22 l46 6 6 -76 c7 -95 49 -192
108 -248 53 -51 180 -110 314 -148 487 -136 1158 -105 1524 71 99 48 157 103
191 180 l25 56 141 6 c346 15 614 91 712 202 75 85 72 41 72 1027 0 854 -1
880 -20 917 -76 149 -374 250 -790 268 l-155 6 -49 44 c-135 121 -450 212
-818 239 l-98 7 0 123 0 124 106 0 c132 0 295 23 394 56 203 68 336 204 385
395 38 145 41 353 5 389 -37 37 -392 33 -541 -5 -187 -48 -327 -172 -390 -346
-12 -32 -25 -59 -28 -59 -4 0 -13 17 -20 38 -26 75 -86 168 -145 228 -100 100
-224 147 -430 164 -117 10 -141 10 -273 1z m394 -156 c34 -8 84 -25 110 -37
68 -31 152 -120 191 -200 32 -66 85 -250 80 -276 -4 -20 -133 74 -200 146 -31
34 -71 82 -89 107 -18 25 -44 48 -58 52 -32 8 -73 -15 -85 -50 -8 -23 -4 -35
30 -84 21 -31 74 -93 117 -137 42 -44 77 -81 77 -82 0 -4 -69 6 -146 22 -147
30 -288 124 -339 225 -31 61 -52 146 -61 246 -6 80 -6 81 17 87 44 9 293 -4
356 -19z m1292 19 l32 -7 -6 -76 c-9 -104 -30 -192 -59 -249 -52 -102 -192
-195 -340 -226 -92 -19 -146 -26 -146 -19 0 3 20 23 45 45 48 42 167 190 178
221 10 26 -9 66 -37 78 -40 18 -71 3 -112 -53 -20 -29 -60 -77 -88 -107 -64
-67 -190 -158 -194 -139 -5 26 48 214 78 275 60 121 154 199 280 233 91 24
299 38 369 24z m-889 -1277 c0 -152 2 -165 20 -182 29 -26 79 -24 102 4 16 20
18 43 18 182 l0 159 34 0 c61 0 239 -20 352 -40 278 -49 494 -162 494 -258 0
-99 -219 -209 -525 -263 -116 -21 -161 -24 -425 -24 -266 0 -308 2 -425 24
-229 41 -398 106 -480 185 -37 35 -45 49 -45 79 0 100 225 214 515 261 115 19
237 33 313 35 l52 1 0 -163z m1540 -157 c119 -22 226 -52 282 -81 56 -29 108
-78 108 -103 0 -69 -208 -162 -440 -195 -41 -6 -131 -12 -200 -14 l-125 -2 -3
214 -2 214 137 -7 c75 -4 185 -16 243 -26z m-2335 -251 c125 -65 281 -108 510
-141 56 -8 190 -13 355 -13 165 0 299 5 355 13 229 33 385 76 510 141 39 20
73 37 78 39 4 2 7 -39 7 -91 l0 -95 -41 -35 c-150 -129 -503 -211 -909 -211
-414 0 -764 82 -915 216 l-35 30 0 95 c0 52 3 93 8 91 4 -2 39 -19 77 -39z
m2725 -194 c0 -67 -15 -84 -116 -131 -133 -62 -349 -104 -541 -104 l-113 0 0
70 c0 49 4 70 13 70 83 2 329 23 400 35 109 19 234 56 297 89 25 13 48 24 53
25 4 0 7 -24 7 -54z m-3020 -127 l65 -13 0 -155 0 -155 -70 -12 c-342 -59
-803 12 -899 140 -20 27 -20 27 0 55 41 57 197 117 388 148 98 16 419 11 516
-8z m497 -128 c311 -86 658 -108 1013 -64 202 25 447 95 558 160 l42 25 0 -94
0 -95 -42 -37 c-76 -70 -279 -145 -478 -179 -512 -86 -1139 -2 -1340 181 l-40
35 0 93 0 92 85 -42 c46 -23 137 -57 202 -75z m2521 -37 c-3 -57 -4 -59 -51
-90 -115 -77 -324 -127 -585 -140 l-133 -6 3 74 3 74 145 7 c223 10 420 49
545 108 33 16 64 29 68 29 4 1 7 -25 5 -56z m-3862 -238 c230 -92 548 -117
872 -69 l42 6 0 -56 c0 -50 -3 -58 -23 -65 -98 -38 -495 -39 -662 -3 -111 24
-235 74 -275 112 -23 21 -30 37 -30 64 0 20 3 36 7 36 3 0 35 -11 69 -25z
m1286 -80 c213 -71 418 -99 723 -99 116 1 255 6 310 13 229 27 437 84 573 156
l62 33 0 -93 0 -93 -42 -37 c-88 -80 -283 -150 -516 -185 -510 -77 -1105 9
-1302 186 l-40 36 0 93 0 93 63 -34 c35 -18 111 -49 169 -69z m2578 31 l0 -54
-54 -36 c-114 -76 -318 -124 -563 -133 l-153 -6 0 70 0 70 132 7 c232 11 422
49 566 111 31 13 60 24 65 25 4 0 7 -24 7 -54z m-3868 -211 c178 -81 531 -116
803 -80 61 8 111 15 113 15 1 0 2 -27 2 -59 0 -67 11 -60 -125 -82 -108 -17
-373 -14 -489 5 -130 22 -279 72 -330 111 -35 26 -41 37 -44 73 -2 23 1 42 6
42 5 0 34 -11 64 -25z m3852 -136 c-77 -85 -326 -152 -622 -166 l-133 -6 3 74
3 74 145 6 c218 10 421 50 561 112 l54 24 3 -50 c2 -36 -2 -54 -14 -68z
m-2587 -50 c87 -30 243 -66 378 -85 169 -25 562 -25 730 0 223 33 368 73 497
137 43 22 80 39 83 39 3 0 5 -40 5 -89 l0 -88 -44 -41 c-55 -51 -115 -81 -236
-120 -219 -70 -444 -97 -743 -89 -283 7 -474 40 -680 117 -66 25 -173 93 -187
120 -6 10 -10 59 -10 108 l0 89 75 -39 c41 -21 100 -48 132 -59z m-1273 -74
c146 -65 339 -96 581 -96 94 1 207 7 253 14 45 8 84 11 87 9 3 -3 5 -29 5 -58
l0 -52 -48 -11 c-314 -67 -782 -7 -914 117 -21 19 -28 35 -28 64 0 21 2 38 4
38 2 0 29 -11 60 -25z m3876 -100 c0 -53 -1 -55 -44 -85 -111 -76 -306 -126
-545 -139 -80 -4 -153 -7 -161 -6 -11 1 -16 19 -18 72 l-3 70 133 7 c228 11
444 53 568 109 30 14 58 26 63 26 4 1 7 -24 7 -54z m-2744 -137 c72 -38 235
-93 348 -117 222 -48 559 -65 812 -40 221 21 475 87 608 157 28 15 54 28 59
30 4 2 7 -38 7 -88 l0 -93 -36 -33 c-77 -73 -268 -145 -499 -187 -106 -19
-155 -22 -415 -22 -260 0 -309 3 -415 22 -230 42 -421 113 -497 185 l-38 35 0
93 c0 50 3 90 8 88 4 -2 30 -15 58 -30z m-1149 -18 c60 -29 204 -69 308 -85
188 -30 338 -29 583 1 l53 7 -3 -59 -3 -59 -65 -13 c-101 -21 -462 -21 -576 1
-164 30 -292 85 -318 135 -14 28 -31 92 -24 92 2 0 23 -9 45 -20z m3889 -146
c-4 -13 -20 -39 -37 -58 -70 -81 -373 -155 -632 -156 l-98 0 3 73 3 72 150 6
c225 10 454 57 573 118 l37 19 3 -25 c2 -14 1 -36 -2 -49z m-2731 -210 c203
-106 513 -164 875 -164 362 0 672 58 875 164 33 17 63 32 68 34 4 2 7 -25 7
-60 0 -74 -32 -152 -75 -186 -112 -88 -397 -161 -712 -182 -370 -25 -792 40
-991 152 -57 32 -93 73 -111 127 -12 38 -15 155 -3 149 4 -2 34 -17 67 -34z"/>
<path d="M7090 2470 c-47 -4 -167 -8 -267 -9 l-183 -1 0 -49 c0 -55 -6 -51
118 -67 l52 -7 -2 -661 -3 -661 -82 -9 -83 -8 0 -54 0 -54 380 0 c433 1 508 8
627 65 142 66 233 191 252 340 29 237 -90 387 -339 429 -47 8 -76 14 -65 15
40 2 146 61 189 105 71 73 105 165 106 282 1 228 -153 339 -485 349 -71 2
-168 0 -215 -5z m308 -115 c62 -19 115 -62 145 -119 19 -35 22 -57 22 -151 0
-94 -3 -117 -23 -160 -30 -66 -66 -102 -127 -131 -46 -22 -62 -24 -217 -24
l-168 0 0 294 0 295 23 4 c62 12 296 6 345 -8z m94 -734 c119 -46 174 -148
166 -310 -8 -166 -87 -263 -248 -302 -57 -13 -320 -17 -359 -4 -21 6 -21 10
-21 319 0 172 3 316 8 320 4 5 95 6 202 4 170 -4 202 -8 252 -27z"/>
<path d="M5263 2463 l-223 -3 0 -50 c0 -54 0 -54 85 -65 28 -3 58 -8 68 -11
16 -5 17 -45 17 -652 0 -356 -4 -652 -8 -658 -4 -7 -44 -15 -89 -19 l-83 -7 0
-49 0 -49 153 0 c83 0 235 -5 336 -11 217 -13 320 -4 442 41 238 86 402 281
471 558 31 124 31 370 0 486 -37 135 -85 221 -171 306 -85 85 -160 127 -288
162 -86 23 -249 28 -710 21z m562 -119 c189 -49 315 -189 371 -414 28 -113 26
-394 -4 -504 -68 -248 -215 -394 -432 -427 -83 -13 -289 -5 -321 11 -18 10
-19 30 -19 675 l0 664 43 5 c96 13 116 14 207 10 52 -3 122 -12 155 -20z"/>
<path d="M8500 2459 c-47 -4 -158 -7 -248 -8 l-163 -1 3 -47 3 -48 83 -14 82
-14 -2 -656 -3 -656 -85 -12 c-47 -6 -86 -12 -87 -12 -2 -1 -3 -21 -3 -46 l0
-45 295 0 c162 0 298 0 303 0 4 0 7 21 7 47 0 35 -4 48 -15 50 -8 1 -54 5
-102 8 l-88 7 0 284 0 284 142 0 142 0 43 -47 c31 -33 72 -105 144 -252 151
-309 161 -328 186 -356 24 -25 26 -25 179 -25 l155 0 -3 48 c-3 47 -3 47 -46
56 -25 5 -55 21 -70 36 -15 15 -74 109 -131 211 -121 214 -176 295 -227 336
l-37 30 66 33 c85 42 148 108 195 208 37 77 37 78 37 207 0 122 -2 133 -28
187 -35 72 -108 138 -184 167 -118 45 -319 60 -543 40z m302 -110 c103 -22
160 -66 199 -154 19 -41 23 -68 23 -150 1 -139 -19 -200 -87 -270 -71 -73
-115 -85 -309 -85 l-148 0 0 329 0 330 38 4 c83 8 234 6 284 -4z"/>
<path d="M9570 2412 l0 -49 85 -12 85 -13 0 -658 0 -658 -27 -6 c-16 -3 -54
-8 -85 -12 l-58 -6 0 -49 0 -49 582 2 582 3 28 160 c36 216 39 199 -29 218
-32 9 -59 13 -61 9 -2 -4 -27 -63 -56 -132 l-53 -125 -144 -6 c-79 -3 -214 -8
-299 -10 l-155 -4 -3 318 -2 317 179 0 179 0 11 -67 c23 -134 16 -123 77 -123
l54 0 0 240 0 240 -55 0 -54 0 -6 -37 c-4 -21 -12 -60 -18 -88 l-12 -50 -175
0 -175 0 -3 299 -2 299 151 -6 c84 -4 203 -7 265 -7 l113 0 32 -105 32 -105
59 0 59 0 -6 48 c-7 57 -25 251 -25 263 0 5 -227 9 -535 9 l-535 0 0 -48z"/>
</g>
</svg>
